<?xml version="1.0" encoding="utf-8"?>
<!DOCTYPE svg PUBLIC "-//W3C//DTD SVG 1.0//EN" "http://www.w3.org/TR/2001/REC-SVG-20010904/DTD/svg10.dtd">
<svg version="1.0" xmlns="http://www.w3.org/2000/svg" width="2000px" height="868px" viewBox="0 0 2000 868" preserveAspectRatio="xMidYMid meet">
 <g fill="#0950de">
  <path d="M1691.4 688.8 c2 -2.9 2 -5.8 0 -8.6 -1.4 -2.1 -1.4 -2.5 0 -4.7 3.5 -5.4 9.4 -0.9 8.3 6.3 -0.7 3.9 -5.4 9.2 -8.3 9.2 -1.4 0 -1.4 -0.2 0 -2.2z"/>
  <path d="M91.3 681.9 c-1.5 -1.5 -1.6 -18.9 -0.4 -46.4 0.7 -15.6 1 -17.4 3.4 -22.1 4.9 -9.7 15 -15.8 28.6 -17.5 9.5 -1.1 98.7 -2.5 102.5 -1.5 l2.8 0.7 -0.4 16.2 c-0.3 15.7 -0.5 16.5 -4 26.5 -4 11.3 -5.7 13.8 -16.8 25.1 -8.3 8.5 -19.3 15 -29.6 17.5 -8.3 2 -84.3 3.3 -86.1 1.5z"/>
  <path d="M746.7 681.6 c-4.9 -1.8 -7.4 -4.1 -9.9 -9 -4.8 -9.4 -2.9 -22.6 4.2 -29 4.6 -4.2 7.3 -5 14 -4.4 9.3 0.9 15 7.9 15.8 19.5 0.5 6.9 -0.9 12.3 -4.5 17.1 -4.4 5.9 -12.7 8.4 -19.6 5.8z m12.5 -8.5 c2.7 -2.4 3.2 -3.6 3.6 -8.9 0.2 -3.4 0.1 -7.7 -0.2 -9.6 -1.6 -8.5 -11.3 -11.6 -17.1 -5.6 -2.6 2.7 -3 3.9 -3.3 10.3 -0.2 5.5 0.1 8 1.5 10.7 3.3 6.4 10.2 7.8 15.5 3.1z"/>
  <path d="M1222.4 682 c-3.9 -1.2 -6.2 -3.8 -7 -7.9 l-0.7 -3.2 3.7 2.2 c7.9 4.6 18.8 1.9 17.2 -4.4 -0.6 -2.5 -2.9 -3.8 -10.3 -5.7 -2.3 -0.6 -5.6 -2.2 -7.3 -3.6 -2.4 -2.1 -3 -3.4 -3 -6.5 0 -8.9 5.6 -13.9 15.6 -13.9 7.4 0 11.4 2.4 11.4 7 0 2.8 -0.1 2.9 -2.7 1.4 -4.3 -2.2 -12.9 -1.8 -15.3 0.6 -4 4 -1.7 6.9 7.7 9.5 8.2 2.3 11.6 5.8 11.6 11.9 -0.2 7.6 -4.8 12.2 -13.5 13.1 -2.4 0.2 -5.7 0 -7.4 -0.5z"/>
  <path d="M1349.8 682 c-10.5 -3.2 -16.3 -16.4 -12.7 -29.3 1.2 -4.3 5.9 -10.1 10 -12.3 3.3 -1.7 11.6 -1.9 15.6 -0.3 9.9 3.7 14.6 18 10 30.1 -3.7 9.5 -13.6 14.6 -22.9 11.8z m13 -9.4 c5.6 -5.5 4.7 -21.1 -1.4 -25.1 -3.3 -2.2 -9.6 -1.9 -12.7 0.5 -1.4 1.1 -3.1 3.7 -3.8 5.7 -1.4 4.3 -0.7 14 1.2 17.3 3.2 5.3 12.2 6.2 16.7 1.6z"/>
  <path d="M1642.2 681.9 c-4.7 -1.4 -10.9 -7.9 -12.3 -13.1 -2.9 -10.9 1.1 -23.2 9.1 -27.7 6 -3.3 15.2 -2.7 20.5 1.3 10 7.7 10.5 27.1 0.9 35.5 -5.2 4.6 -11.4 5.9 -18.2 4z m13.7 -9.3 c1.9 -2 2.6 -3.8 2.9 -8.5 0.6 -8.2 -0.4 -12.4 -3.5 -15.5 -3.1 -3.1 -9.5 -3.6 -13.2 -1 -4.8 3.4 -6.7 14.6 -3.6 22 2.7 6.5 12.2 8.1 17.4 3z"/>
  <path d="M506.6 679.8 c-1.3 -1.8 -1.6 -5.6 -1.6 -20.4 0 -20.7 -0.8 -19.1 9.6 -20.1 11.4 -1.1 17.4 2.9 18.2 11.9 0.3 4.4 0 5.9 -2 8.8 -3.3 4.9 -8.2 7.2 -13.5 6.5 l-4.3 -0.6 0 8 c0 7.9 -0.1 8.1 -2.4 8.1 -1.4 0 -3.2 -1 -4 -2.2z m16.6 -21.5 c2.1 -1.9 2.5 -9.2 0.6 -11.1 -0.7 -0.7 -3.4 -1.2 -6 -1.2 l-4.8 0 0 6.3 c0 3.5 0.3 6.7 0.7 7 1.3 1.3 7.7 0.7 9.5 -1z"/>
  <path d="M569.4 680.1 c-5.3 -3.2 -6.7 -8.8 -6.2 -23.3 0.3 -6.8 0.9 -13.1 1.3 -14.1 1.2 -2.9 4.8 -3.7 15.6 -3.7 l10 0 -0.3 3.3 -0.3 3.2 -9.2 0.3 -9.3 0.3 0 5.4 0 5.5 7.6 0 7.5 0 -0.3 2.8 c-0.3 2.6 -0.5 2.7 -7.5 3 l-7.3 0.3 0 4.4 c0 6.5 1.5 7.5 11.6 7.5 9 0 9.8 0.6 6.8 4.8 -1.3 1.9 -2.4 2.2 -9.2 2.2 -5.8 0 -8.5 -0.5 -10.8 -1.9z"/>
  <path d="M622.7 680.2 c-1.5 -1.6 -1.7 -4.6 -1.7 -20.9 l0 -19 3.8 -0.7 c14.7 -2.4 23.7 1.9 23.7 11.5 0 4.5 -1.9 8.3 -5.1 10 -2.2 1.1 -2.3 1.4 -0.9 2.9 0.8 0.9 2.7 4.5 4.1 8.1 1.4 3.5 3 6.8 3.5 7.4 1.7 1.7 0.9 2.5 -2.5 2.5 -4 0 -4.8 -0.8 -7.6 -8.3 -2.3 -6 -5 -8.7 -8.7 -8.7 -2.2 0 -2.3 0.3 -2.3 8.5 0 8.3 -0.1 8.5 -2.3 8.5 -1.3 0 -3.1 -0.8 -4 -1.8z m17 -23.8 c1.8 -2.4 1.6 -6.9 -0.3 -8.8 -0.9 -1 -3.3 -1.6 -6 -1.6 l-4.4 0 0 5.8 c0 3.2 0.3 6.2 0.8 6.6 1.2 1.3 8.6 -0.2 9.9 -2z"/>
  <path d="M683.2 680.8 c-1.5 -1.5 -1.7 -37.5 -0.2 -39.8 0.7 -1.1 3.5 -1.6 12 -1.8 9.7 -0.3 11 -0.2 11 1.3 0 0.9 -0.5 2.5 -1 3.6 -0.9 1.6 -2.2 1.9 -8.5 1.9 l-7.5 0 0 5.5 0 5.5 7 0 c6.8 0 7 0.1 7 2.5 0 3.2 -2.6 4.5 -8.9 4.5 l-5.1 0 0 9 c0 8.7 -0.1 9 -2.3 9 -1.3 0 -2.8 -0.5 -3.5 -1.2z"/>
  <path d="M804.6 680.4 c-1.3 -1.3 -1.6 -4.6 -1.6 -20.8 l0 -19.3 3.8 -0.7 c13.6 -2.2 22.6 1.4 23.2 9.4 0.5 5.5 -0.1 7.3 -3.5 10.7 -3.4 3.4 -3.5 3.7 -1.9 5.5 1.6 1.7 7.4 14.3 7.4 16 0 1.3 -5.7 0.9 -6.8 -0.5 -0.6 -0.6 -2 -3.7 -3.2 -6.7 -2.3 -6.2 -5.1 -9 -8.6 -9 -2.3 0 -2.4 0.2 -2.4 8.5 0 8.3 0 8.5 -2.4 8.5 -1.4 0 -3.2 -0.7 -4 -1.6z m17.1 -24 c1.8 -2.4 1.6 -6.9 -0.3 -8.8 -0.9 -1 -3.3 -1.6 -6 -1.6 l-4.4 0 0 5.8 c0 3.2 0.3 6.2 0.8 6.6 1.2 1.3 8.6 -0.2 9.9 -2z"/>
  <path d="M863.9 680.4 c-1.5 -1.8 -1.4 -13.7 0.1 -27.4 0.6 -4.7 1 -9.2 1 -10 0.1 -3.4 1.6 -4.3 5.2 -3.1 5.4 1.8 7.2 4.6 11.3 17.1 2 6.3 3.9 12.2 4.2 13 0.2 0.8 2.1 -3.9 4.2 -10.5 2.1 -6.6 4.7 -13.9 6 -16.3 1.8 -3.6 2.5 -4.2 4.4 -3.6 5.8 1.7 6.9 5.6 8.2 29.7 l0.7 12.7 -2.4 0 c-4.1 0 -5.8 -2.9 -5.8 -10.1 0 -8.6 -1.1 -19.9 -2 -19.9 -0.4 0 -2.1 4.8 -3.9 10.8 -5 16.5 -6.1 19.2 -8.2 19.2 -3.5 0 -5.8 -3.9 -10 -17 -2.2 -7.1 -4.4 -13 -4.9 -13 -0.8 0 -2 13.3 -2 23.3 0 6.4 -0.1 6.7 -2.4 6.7 -1.3 0 -2.9 -0.7 -3.7 -1.6z"/>
  <path d="M939.3 680.5 c-1.6 -4.2 4.2 -24.8 10 -35.8 2.9 -5.5 3.2 -5.8 6.1 -5.3 1.6 0.4 3.8 1.4 4.8 2.2 3.2 2.9 9 20.4 12.3 37.2 0.6 2.8 0.4 3.2 -1.5 3.2 -4 0 -5.8 -1.8 -6.6 -6.5 l-0.6 -4.5 -8.3 0 -8.4 0 -1.1 5.5 c-1 4.9 -1.4 5.5 -3.6 5.5 -1.4 0 -2.7 -0.7 -3.1 -1.5z m22.7 -15.9 c0 -1.3 -4.3 -13.5 -5.4 -15.6 l-1.4 -2.5 -2.1 4.7 c-1.9 4.4 -4.1 11.4 -4.1 13.1 0 0.4 2.9 0.7 6.5 0.7 3.6 0 6.5 -0.2 6.5 -0.4z"/>
  <path d="M1004.6 680.4 c-1.4 -1.3 -1.6 -4.7 -1.6 -21.6 l0 -20.1 3.6 0.6 c6.4 1.1 8.3 3.2 14.8 16.5 l6.1 12.7 0.3 -14.7 c0.3 -15.7 0.5 -16.4 5 -13.2 2.1 1.5 2.2 2 2.2 21.5 l0 19.9 -2.4 0 c-4.6 0 -8.4 -4.7 -14.8 -18.1 -3.4 -7.1 -6.4 -12.9 -6.7 -12.9 -0.3 0 -0.5 7 -0.3 15.5 l0.3 15.5 -2.5 0 c-1.3 0 -3.2 -0.7 -4 -1.6z"/>
  <path d="M1078.2 680.3 c-1.8 -0.8 -4.5 -3.1 -6.2 -4.9 -7.9 -9.1 -5.8 -26.5 4 -33 9 -6 22 -3.5 22 4.1 0 2.5 -0.1 2.5 -3 1 -3.7 -1.9 -10.3 -1.9 -14 0 -4 2.1 -6 6.3 -6 13 0 6.1 1.8 10.5 5.2 12.9 2.9 2 11 2.1 14.8 0.1 2.8 -1.5 3 -1.4 3 0.4 0 1.1 -0.3 2.7 -0.6 3.6 -1.7 4.3 -12.9 6 -19.2 2.8z"/>
  <path d="M1134.8 680.4 c-1.5 -0.8 -3.5 -2.9 -4.5 -4.7 -3.1 -5.9 -3 -30 0.2 -34.4 1.1 -1.5 3.1 -1.8 13.4 -2.1 10.7 -0.3 12.1 -0.2 12.1 1.3 0 0.9 -0.5 2.5 -1 3.6 -0.9 1.7 -2.2 1.9 -10 1.9 l-9 0 0 5.5 0 5.5 7.6 0 7.5 0 -0.3 2.8 c-0.3 2.6 -0.5 2.7 -7.5 3 l-7.3 0.3 0 4.4 c0 6.5 1.5 7.5 11.6 7.5 9 0 9.8 0.6 6.8 4.8 -1.3 2 -2.4 2.2 -9.2 2.2 -4.8 -0.1 -8.7 -0.6 -10.4 -1.6z"/>
  <path d="M1278.6 680.4 c-1.3 -1.3 -1.6 -4.6 -1.6 -20.5 0 -17.1 0.2 -19 1.8 -19.7 0.9 -0.4 5.6 -0.7 10.4 -0.7 10.2 0 13.4 1.7 15.7 8.1 3.8 10.9 -6 21.9 -16.6 18.6 l-3.3 -1 0 8.4 c0 8.2 0 8.4 -2.4 8.4 -1.4 0 -3.2 -0.7 -4 -1.6z m16.4 -21.4 c2.7 -1.5 3.6 -7.4 1.6 -10.5 -1.4 -2.1 -2.4 -2.5 -6.6 -2.5 l-5 0 0 6.3 c0 3.5 0.3 6.7 0.7 7 1 1.1 7.2 0.8 9.3 -0.3z"/>
  <path d="M1409.8 680.9 c-1.6 -0.9 -1.8 -3 -1.8 -20.8 l0 -19.8 3.1 -0.7 c5.4 -1 14.8 -0.7 18.2 0.8 4.4 1.8 6.7 5.6 6.7 10.9 0 4.8 -2.6 9.1 -6.1 10.2 l-2.1 0.7 2 2.1 c2 2.1 8.2 14.9 8.2 16.8 0 1.6 -5.6 1 -7.2 -0.8 -0.8 -1 -2.5 -4.4 -3.8 -7.6 -2.4 -6.1 -4.2 -7.7 -8.4 -7.7 -2.6 0 -2.6 0 -2.6 8.5 0 8.2 -0.1 8.5 -2.2 8.5 -1.3 0 -3.1 -0.5 -4 -1.1z m16.8 -24 c1.7 -1.4 1.9 -8 0.2 -9.7 -0.7 -0.7 -3.4 -1.2 -6 -1.2 l-4.8 0 0 5.9 c0 3.8 0.5 6.1 1.3 6.5 1.8 0.8 7.7 -0.1 9.3 -1.5z"/>
  <path d="M1480.6 680.4 c-1.3 -1.3 -1.6 -4.4 -1.6 -18 l0 -16.4 -6 0 c-5.3 0 -6 -0.2 -6 -1.9 0 -4.2 3.5 -5.1 18.7 -5.1 13.2 0 14.3 0.1 14.3 1.8 0 3.2 -3.3 5.2 -8.3 5.2 l-4.7 0 0 18 0 18 -2.4 0 c-1.4 0 -3.2 -0.7 -4 -1.6z"/>
  <path d="M1577.1 679.9 c-11.6 -5.9 -14.5 -23.9 -5.4 -33.9 4.5 -5 8.9 -7 15.8 -7 4.9 0 6 0.4 8.6 2.9 1.8 1.8 2.9 4 2.9 5.7 0 2.7 0 2.7 -2.1 0.8 -1.4 -1.2 -4 -1.9 -8.2 -2.2 -5.3 -0.3 -6.6 -0.1 -9.1 1.9 -7.4 5.8 -7.4 19 -0.1 24.7 3.3 2.6 10.7 3 16 0.8 3.3 -1.4 3.5 -1.4 3.5 0.4 0 1 -1.1 3.1 -2.4 4.6 -2 2.4 -3.2 2.8 -8.7 3.1 -5.1 0.3 -7.3 0 -10.8 -1.8z"/>
  <path d="M1675.8 680.9 c-2.1 -1.2 -2.4 -5.9 -0.6 -7.7 2 -2 5.6 -1.4 7.4 1.3 1.5 2.3 1.5 2.7 0 5 -1.7 2.6 -4 3.1 -6.8 1.4z"/>
  <path d="M1742.5 681 c-6.6 -2.7 -8.4 -9 -8.5 -28.2 0 -13.8 0 -13.8 2.3 -13.8 1.3 0 3.2 0.6 4.3 1.4 1.7 1.3 2 3.1 2.4 17.1 0.4 12.3 0.8 15.8 2 16.6 0.8 0.5 4.8 0.8 8.8 0.7 l7.2 -0.3 0 2.7 c0 1.7 -0.7 3.1 -1.9 3.8 -2.3 1.2 -13.7 1.2 -16.6 0z"/>
  <path d="M1801.9 680.3 c-1 -1.2 -1.5 -5.9 -1.7 -18 l-0.3 -16.3 -6 0 c-6.5 0 -7.6 -1.3 -3.9 -5 1.8 -1.8 3.3 -2 16.5 -2 14.5 0 14.5 0 14.5 2.3 0 3.5 -1.9 4.7 -7.7 4.7 l-5.3 0 0 18 0 18 -2.4 0 c-1.3 0 -3 -0.7 -3.7 -1.7z"/>
  <path d="M1855 679.2 l-3 -3 0 -17.7 c0 -20.5 -0.9 -19 12 -19 10 0 14.3 2 18.8 8.8 2.3 3.5 2.7 5.1 2.7 11.6 -0.1 9 -2.4 14.4 -8.2 18.8 -3.1 2.4 -4.7 2.8 -11.4 3.2 -7.6 0.3 -7.9 0.2 -10.9 -2.7z m17.5 -6.4 c5.1 -4 7 -12.4 4.1 -19.1 -2.1 -5 -5 -7 -11.1 -7.5 l-5.5 -0.4 0 13.9 c0 7.7 0.3 14.3 0.7 14.6 1.5 1.6 9.1 0.6 11.8 -1.5z"/>
  <path d="M1893.5 680.4 c-1.9 -2 -1.6 -6.3 0.6 -7.7 2.3 -1.4 6.7 0 7.4 2.4 0.8 2.6 -1.9 6.9 -4.5 6.9 -1 0 -2.6 -0.7 -3.5 -1.6z"/>
  <path d="M584 491.6 c-12.2 -1.9 -19.8 -4.1 -30.8 -8.8 -9.6 -4.1 -21.9 -11.2 -29.7 -17.2 -7.3 -5.5 -17.6 -16.1 -19 -19.3 -0.8 -1.8 -1.8 -3.3 -2.4 -3.3 -1 0 -9.1 -13 -13.4 -21.5 -3.8 -7.6 -9.4 -26.2 -11.2 -37.2 -1.4 -8.6 -1.5 -21.4 -1.3 -105.8 l0.3 -96 16.5 -0.3 c24.6 -0.5 34.4 1.6 45.4 9.5 5.7 4.1 11.5 13.9 14.5 24.7 l2.5 9.1 0.7 77 c0.6 84.4 0.5 82.5 6.9 97.8 1.7 4.2 3.8 8.1 4.6 8.8 0.8 0.6 1.4 1.8 1.4 2.5 0 0.8 1.1 1.9 2.5 2.4 1.4 0.5 2.5 1.5 2.5 2.2 0 1.8 15.2 8.4 23.7 10.4 14.7 3.4 40.4 0.9 47.3 -4.6 1.4 -1.1 3.9 -2.7 5.5 -3.6 4.4 -2.2 12.3 -16.9 15.8 -29.1 2.1 -7.7 2.2 -8.6 2.7 -107.3 l0.5 -99.5 23 0.1 c20.6 0 23.6 0.2 28.5 2.1 9 3.3 13.4 6.7 18.5 14.1 10.7 16.1 10.8 16.3 10.2 104.7 -0.4 69.4 -0.5 73.5 -2.5 82.7 -2.5 11.6 -7.1 25.4 -12.3 36.5 -3.8 8.4 -11.5 20.3 -13 20.3 -0.5 0 -1.7 1.7 -2.8 3.8 -1.8 3.5 -6.5 8.3 -18.1 18.1 -12.8 10.9 -38.7 22 -59.5 25.6 -12.6 2.2 -46.5 2.8 -57.5 1.1z"/>
  <path d="M1201.9 492.6 c-0.2 -0.2 -4.9 -0.9 -10.4 -1.6 -9 -1.1 -23.6 -5.3 -35.5 -10.2 -9.6 -4 -29.7 -17.7 -36.1 -24.7 -10.3 -11.3 -20.7 -25.5 -21.9 -30.1 -0.6 -2 -2.8 -7.6 -5 -12.4 -4.4 -9.2 -7.2 -20.4 -9 -35.6 -0.7 -6.6 -1 -38.2 -0.8 -102.5 l0.3 -93 18.5 -0.3 c20.7 -0.3 30.4 1.1 36.2 5.3 1.8 1.3 4.7 3.1 6.4 3.9 3.7 1.7 7.1 5.9 11.2 14.1 6.9 13.9 6.5 9.1 7.3 93 0.7 87.5 0.9 89.4 8.1 103.9 6.3 12.6 17.6 21 32.3 24.1 11.2 2.3 28.6 2 38.4 -0.8 13.2 -3.9 20 -9.5 26.3 -22.1 3.4 -6.6 4.5 -10.3 6 -19.6 1.6 -10.5 1.8 -19.6 1.8 -106.7 l0 -95.3 20.3 0 c22.6 0 30.6 1.2 38.8 5.7 9.8 5.3 17.7 17.3 20.1 30.4 0.9 4.6 1.2 28.1 1.2 81.4 l0 75 -2.8 13 c-2.8 13.5 -7.3 28.1 -10.3 33.9 -8.8 16.5 -25.6 37.6 -34.3 42.8 -1.9 1.2 -7.9 5 -13.3 8.6 -20.4 13.5 -47 20.2 -79.8 20.2 -7.4 0 -13.8 -0.2 -14 -0.4z"/>
  <path d="M1795.5 489.9 c-17.7 -1 -24.9 -2.3 -39.5 -7 -15.4 -5 -28.5 -11.7 -33.4 -16.9 -2 -2.2 -4.9 -4.6 -6.4 -5.4 -3.9 -2 -16.5 -18.8 -20 -26.6 -4.7 -10.3 -10.1 -28.2 -11.8 -38.8 -1.3 -8.4 -1.5 -19.1 -1.1 -70.3 0.3 -53.9 0.6 -62.3 2.5 -78.4 1.2 -9.9 2.7 -20.2 3.3 -23 1.4 -6.2 7 -18.5 9.2 -20.4 0.9 -0.7 1.7 -2 1.7 -2.7 0 -0.8 0.4 -1.4 1 -1.4 0.5 0 2.4 -1.6 4.2 -3.6 4.6 -5 13.6 -9.3 24.3 -11.5 8.4 -1.7 15 -1.9 94.8 -1.9 73.7 0 85.8 0.2 86.3 1.4 0.3 0.8 0.2 8.4 -0.3 16.8 -0.8 13.5 -1.2 16 -3.6 21.3 -3.2 6.9 -12.1 16.6 -18.2 19.7 -9.7 5.1 -10.5 5.1 -67.7 5.5 -40.4 0.3 -53.9 0.7 -54.7 1.6 -1.6 2 -4.4 52.6 -3 54.3 1 1.2 10.9 1.4 58.9 1.4 50 0 57.9 0.2 59 1.5 2 2.4 0.9 33.8 -1.3 38.9 -2.6 5.8 -11.7 14.1 -18.5 16.6 -9.7 3.7 -14.4 4 -55.8 4 -36.7 0 -40.4 0.2 -42 1.7 -1.5 1.5 -1.6 3.3 -1.1 14.4 0.7 16.4 3.2 25.4 8.9 31.5 5.6 6.1 9.1 8 19.4 10.6 8.4 2.1 10.9 2.2 42.4 2.2 34.9 -0.1 45.7 -0.9 67.1 -5.3 7 -1.5 9.6 -1.6 10.2 -0.8 1 1.5 -0.2 36.1 -1.4 40.7 -1.6 6 -5.2 11.3 -11.4 16.3 -8 6.4 -11.3 8.1 -22 10.5 -16.7 3.9 -47 5.1 -80 3.1z"/>
  <path d="M1611 488 c-7.8 -1 -17.5 -4.2 -21 -7 -1.4 -1.1 -3.5 -2.4 -4.6 -2.9 -3.6 -1.6 -12.7 -11.8 -15.5 -17.4 -3.6 -7.1 -10.2 -20.8 -19.9 -41.7 -4.5 -9.6 -9.3 -20 -10.8 -23 -1.5 -3.2 -5.6 -8.5 -9.7 -12.6 l-7 -7.2 -9.5 -2.2 c-5.7 -1.4 -13.1 -2.3 -18.5 -2.4 l-9 -0.1 -0.3 57.3 -0.2 57.4 -21.8 -0.4 c-25.7 -0.6 -29.2 -1.4 -39.8 -9.3 -7.4 -5.6 -12 -11.6 -15.7 -20.7 l-2.2 -5.3 -0.2 -129 c-0.2 -71 0.1 -129.6 0.5 -130.3 1.2 -1.8 8.9 -3.5 33.8 -7.6 29.2 -4.9 38.6 -5.6 71.2 -5.6 31.1 0 42.7 0.9 57.1 4.6 11.6 2.9 31.8 12.3 38.6 17.9 2.8 2.3 6.2 4.9 7.7 5.8 3.1 1.9 13.2 15.6 18.1 24.7 5.6 10.4 6.8 15.7 7.4 33.5 0.6 19.3 -0.4 24.9 -7.8 40.9 -8.4 18.4 -19.2 30 -35.2 37.9 -8.9 4.5 -9.7 5.1 -9.7 7.7 0 2.4 0.7 3.3 4 5 2.1 1.1 4.5 3 5.1 4.3 0.7 1.2 4 5.2 7.5 8.9 3.7 4 6.7 8.2 7.3 10.2 0.5 2 1.9 4.8 3 6.2 1.2 1.5 2.1 3.4 2.1 4.4 0 1 0.9 2.9 2 4.3 1.1 1.3 4.4 7.8 7.4 14.3 5.5 12.1 25 52.7 26.7 55.4 0.5 0.8 2.1 3.8 3.5 6.5 1.5 2.8 3.8 6.4 5.1 8.2 l2.4 3.1 -3.3 1.1 c-12.9 4.2 -36.5 6.7 -48.8 5.1z m-77.5 -173.5 c6.6 -1.8 14.5 -5.8 17.8 -9.1 1.2 -1.2 3.7 -5.7 5.6 -10 3.2 -7.3 3.5 -8.7 3.4 -17.5 -0.1 -13.9 -2.4 -21 -8.7 -27.5 -7.8 -7.9 -13.5 -9.8 -31.9 -10.2 -15.5 -0.4 -31 1 -33.3 2.9 -2 1.6 -2.1 69.1 -0.1 70.7 2.8 2.4 38.8 2.8 47.2 0.7z"/>
  <path d="M902.2 484.5 c-3.5 -0.8 -8.3 -2.5 -10.7 -3.9 -4.5 -2.7 -13.7 -12.2 -15.9 -16.5 -3.4 -6.6 -3.6 -12.5 -3.6 -112.2 0 -66.4 -0.3 -99.7 -1 -101 -1 -1.8 -2.6 -1.9 -42.6 -1.9 -26.7 0 -42.2 -0.4 -43.5 -1 -1.7 -1 -1.9 -2.2 -1.9 -13.9 0 -7 0.5 -15.4 1.2 -18.7 2.3 -11.8 14.6 -25.6 26.6 -29.6 l6.7 -2.3 112.4 -0.3 c90.1 -0.2 112.6 0 113.3 1 1.2 1.9 1 22.9 -0.3 29 -1.8 8.4 -5.2 13.8 -13.4 21.7 -13.2 12.5 -19.1 14 -53.7 14.1 -16.2 0 -21.9 0.3 -22.5 1.2 -0.4 0.7 -1 54 -1.3 118.3 l-0.5 117 -21.5 0.2 c-15.2 0.1 -23.4 -0.2 -27.8 -1.2z"/>
  <path d="M91 452.6 l0 -31.5 3.8 -7.3 c3.2 -6.3 4.4 -7.7 8.7 -10 11.2 -6 16.1 -6.9 42 -7.7 30.3 -1 246 -1.5 250.9 -0.6 4.9 1 5.1 2.5 3.8 21.1 -1.2 16.3 -2.8 22.3 -9.6 34.4 -5.5 9.8 -20.6 23 -32.1 28.1 -10.9 4.8 -13.5 4.9 -144.6 4.9 l-122.9 0 0 -31.4z"/>
  <path d="M91.4 269.5 c-0.4 -0.9 -0.4 -5.7 -0.2 -10.8 0.4 -7 1.3 -11.5 3.8 -18.7 1.8 -5.2 4 -10.4 5 -11.5 0.9 -1.1 2.2 -3.4 2.9 -5.1 0.7 -1.8 4 -6 7.3 -9.5 3.3 -3.5 6.3 -6.7 6.6 -7.2 4.4 -5 14.5 -12 22.7 -15.9 17.2 -8.2 9.5 -7.8 160.8 -7.8 l133 0 -0.7 9.2 c-1.3 17.8 -6 30.8 -15.4 42.7 -2.6 3.4 -5.6 7.5 -6.7 9.3 -1.1 1.7 -3.2 3.9 -4.6 4.7 -1.5 0.9 -4.7 3.2 -7 5.3 -7.4 6.1 -21.4 12.6 -32 14.8 -9 1.9 -14.6 2 -142.2 2 -118.2 0 -132.8 -0.2 -133.3 -1.5z"/>
 </g>
</svg>